<svg fill="#000000" height="200px" width="200px" version="1.1" id="Layer_1" xmlns="http://www.w3.org/2000/svg" xmlns:xlink="http://www.w3.org/1999/xlink" viewBox="0 0 512 512" xml:space="preserve"><g id="SVGRepo_bgCarrier" stroke-width="0"></g><g id="SVGRepo_tracerCarrier" stroke-linecap="round" stroke-linejoin="round"></g><g id="SVGRepo_iconCarrier"> <g> <g> <path d="M3.863,35.182h17.922V512h125.146v-17.591c0-4.937-0.05-9.744-0.147-14.433h218.432 c-0.095,4.689-0.147,9.496-0.147,14.433V512h125.146V35.182h17.922V0H3.863V35.182z M455.036,476.818h-54.547 c0.928-34.266,4.886-76.382,16.874-109.356c5.059-13.912,10.12-22.162,13.332-26.516h24.341V476.818z M329.176,35.182h125.86 v270.582h-24.273C329.716,191.605,328.843,98.078,329.176,35.182z M273.592,35.182h20.401 c-0.333,63.516,0.632,166.855,105.803,288.615c-11.553,17.407-27.499,53.045-32.872,120.997h-93.332V35.182z M238.411,35.182 v409.612h-93.332c-5.372-67.952-21.319-103.59-32.872-120.997C217.378,202.037,218.343,98.698,218.01,35.182H238.411z M56.967,35.182h125.86c0.333,62.896-0.542,156.423-101.587,270.582H56.967V35.182z M56.967,340.946h24.492 c7.766,10.502,27.73,46.087,30.067,135.872H56.967V340.946z"></path> </g> </g> </g></svg>